<svg xmlns="http://www.w3.org/2000/svg" version="1.1" xmlns:xlink="http://www.w3.org/1999/xlink" xmlns:svgjs="http://svgjs.dev/svgjs" width="1500" height="1500" viewBox="0 0 1500 1500"><rect width="1500" height="1500" fill="#000000"></rect><g transform="matrix(0.6666666666666666,0,0,0.6666666666666666,249.39393939393938,630.4447994356481)"><svg viewBox="0 0 396 95" data-background-color="#000000" preserveAspectRatio="xMidYMid meet" height="359" width="1500" xmlns="http://www.w3.org/2000/svg" xmlns:xlink="http://www.w3.org/1999/xlink"><g id="tight-bounds" transform="matrix(1,0,0,1,0.2400000000000091,-0.04424490133661152)"><svg viewBox="0 0 395.52 95.08848980267322" height="95.08848980267322" width="395.52"><g><svg viewBox="0 0 628.6534665471894 151.13700632885212" height="95.08848980267322" width="395.52"><g><rect width="13.149726197902956" height="146.54384115822126" x="185.5603733390693" y="2.2965825853154342" fill="#ffffff" opacity="1" stroke-width="0" stroke="transparent" fill-opacity="1" class="rect-qz-0" data-fill-palette-color="primary" rx="1%" id="qz-0" data-palette-color="#ffffff"></rect></g><g transform="matrix(1,0,0,1,233.1334665471894,2.66111950361946)"><svg viewBox="0 0 395.52 145.8147673216132" height="145.8147673216132" width="395.52"><g id="textblocktransform"><svg viewBox="0 0 395.52 145.8147673216132" height="145.8147673216132" width="395.52" id="textblock"><g><svg viewBox="0 0 395.52 145.8147673216132" height="145.8147673216132" width="395.52"><g transform="matrix(1,0,0,1,0,0)"><svg width="395.52" viewBox="0.75 -35.15 96.69 35.65" height="145.8147673216132" data-palette-color="#ffffff"><g class="wordmark-text-0" data-fill-palette-color="primary" id="text-0"><path d="M26 0.1L26 0.1Q21.65 0.1 21.3-1.3L21.3-1.3 19.65-7.75 11.7-7.75 10.25-1.55Q9.95 0 5.45 0L5.45 0Q3.05 0 1.9-0.28 0.75-0.55 0.75-0.7L0.75-0.7 9.6-34.55Q9.6-34.95 16.45-34.95 23.3-34.95 23.3-34.55L23.3-34.55 31.95-0.65Q31.95-0.3 29.65-0.1 27.35 0.1 26 0.1ZM15.65-24.45L12.95-14.1 18.2-14.1 15.95-24.45 15.65-24.45ZM44.1-34.65L44.1-0.4Q44.1 0.05 39 0.05L39 0.05Q35 0 35-0.35L35-0.35 35-34.4Q35-35.15 39.85-35.15L39.85-35.15Q44.1-35 44.1-34.65L44.1-34.65ZM51.75-18.15L51.75-18.15Q50.35-20.65 50.35-22.23 50.35-23.8 51.2-24.25L51.2-24.25Q54.05-25.5 59.02-25.5 64-25.5 66.05-23.18 68.09-20.85 68.09-16.3L68.09-16.3 68.09-8.4 69.8-8.4Q70.65-8.4 71.12-7.4 71.59-6.4 71.59-4.65 71.59-2.9 70.72-1.2 69.84 0.5 68.34 0.5L68.34 0.5Q65.65 0.5 64-0.95L64-0.95Q63.25-1.55 62.85-2.4L62.85-2.4Q60.55 0.5 55.7 0.5L55.7 0.5Q52.05 0.5 49.55-2.1 47.05-4.7 47.05-8.25L47.05-8.25Q47.05-16.4 56.8-16.4L56.8-16.4 59.55-16.4 59.55-16.9Q59.55-18.2 59.12-18.57 58.7-18.95 57.15-18.95L57.15-18.95Q55.25-18.95 51.75-18.15ZM55.75-8.95L55.75-8.95Q55.75-7.85 56.35-7.28 56.95-6.7 57.87-6.7 58.8-6.7 59.55-7.45L59.55-7.45 59.55-11.3 58.15-11.3Q55.75-11.3 55.75-8.95ZM77.59-18.15L77.59-18.15Q76.19-20.65 76.19-22.23 76.19-23.8 77.04-24.25L77.04-24.25Q79.89-25.5 84.87-25.5 89.84-25.5 91.89-23.18 93.94-20.85 93.94-16.3L93.94-16.3 93.94-8.4 95.64-8.4Q96.49-8.4 96.97-7.4 97.44-6.4 97.44-4.65 97.44-2.9 96.57-1.2 95.69 0.5 94.19 0.5L94.19 0.5Q91.49 0.5 89.84-0.95L89.84-0.95Q89.09-1.55 88.69-2.4L88.69-2.4Q86.39 0.5 81.54 0.5L81.54 0.5Q77.89 0.5 75.39-2.1 72.89-4.7 72.89-8.25L72.89-8.25Q72.89-16.4 82.64-16.4L82.64-16.4 85.39-16.4 85.39-16.9Q85.39-18.2 84.97-18.57 84.54-18.95 82.99-18.95L82.99-18.95Q81.09-18.95 77.59-18.15ZM81.59-8.95L81.59-8.95Q81.59-7.85 82.19-7.28 82.79-6.7 83.72-6.7 84.64-6.7 85.39-7.45L85.39-7.45 85.39-11.3 83.99-11.3Q81.59-11.3 81.59-8.95Z" fill="#ffffff" data-fill-palette-color="primary"></path></g></svg></g></svg></g></svg></g></svg></g><g><svg viewBox="0 0 151.13700632885212 151.13700632885212" height="151.13700632885212" width="151.13700632885212"><g><svg xmlns="http://www.w3.org/2000/svg" data-name="Layer 1" viewBox="0 0 128 128" x="0" y="0" height="151.13700632885212" width="151.13700632885212" class="icon-icon-0" data-fill-palette-color="accent" id="icon-0"><path d="M18.136 82.998c-4.542 11.393-4.679 20.969 0.609 26.257 2.711 2.711 6.544 3.998 11.174 3.998a41.839 41.839 0 0 0 15.084-3.387C49.847 121.133 56.521 128 64 128s14.153-6.867 18.997-18.135a41.841 41.841 0 0 0 15.084 3.387c4.628 0 8.464-1.287 11.174-3.997 5.288-5.288 5.151-14.864 0.609-26.257C121.132 78.154 128 71.479 128 64s-6.868-14.154-18.136-18.998c4.542-11.393 4.679-20.969-0.609-26.257C103.966 13.457 94.39 13.593 82.998 18.135 78.154 6.868 71.479 0 64 0 56.521 0 49.846 6.868 45.002 18.136c-11.392-4.542-20.968-4.679-26.257 0.609-5.288 5.288-5.151 14.864-0.609 26.257C6.868 49.846 0 56.521 0 64S6.868 78.154 18.136 82.998Zm3.437 23.429c-4.121-4.121-3.695-12.19 0.274-21.963a100.747 100.747 0 0 0 17.21 4.479A100.75 100.75 0 0 0 43.535 106.153C33.763 110.121 25.696 110.546 21.573 106.427Zm15.493-38.063Q35.315 66.18 33.71 64q1.604-2.179 3.356-4.364C37.027 61.078 37 62.53 37 64S37.027 66.922 37.066 68.364Zm-5.816-7.814a98.957 98.957 0 0 1-7.776-13.336A98.959 98.959 0 0 1 38.402 43.282q-0.656 4.687-1.012 9.696Q34.103 56.764 31.25 60.55ZM37.39 75.022q0.352 5.001 1.012 9.696a98.959 98.959 0 0 1-14.928-3.932 98.957 98.957 0 0 1 7.776-13.336Q34.1 71.228 37.39 75.022ZM47.736 47.736q3.382-3.382 6.856-6.436Q59.203 41.007 64 41q4.789 0 9.408 0.3 3.463 3.051 6.856 6.436 3.384 3.384 6.437 6.861Q86.993 59.206 87 64q0 4.786-0.299 9.403-3.052 3.465-6.437 6.861-3.384 3.384-6.861 6.437Q68.794 86.993 64 87q-4.786 0-9.403-0.299-3.465-3.052-6.861-6.437-3.384-3.384-6.437-6.861Q41.007 68.794 41 64q0-4.786 0.299-9.403Q44.352 51.131 47.736 47.736Zm-5.867 0.305q0.306-2.783 0.713-5.459 2.675-0.406 5.459-0.713c-1.048 0.992-2.093 1.999-3.133 3.039S42.862 46.993 41.869 48.041ZM59.625 37.067q2.189-1.756 4.375-3.361 2.184 1.608 4.375 3.361C66.929 37.027 65.474 37 64 37S61.071 37.027 59.625 37.067ZM79.959 41.869q2.783 0.306 5.459 0.713 0.406 2.675 0.713 5.459c-0.992-1.048-2-2.093-3.039-3.133S81.007 42.862 79.959 41.869Zm6.172 38.09q-0.306 2.783-0.713 5.459-2.672 0.406-5.453 0.712 1.569-1.486 3.127-3.038C84.131 82.052 85.138 81.007 86.131 79.959ZM68.364 90.934q-2.184 1.752-4.364 3.357-2.179-1.604-4.365-3.357C61.078 90.973 62.53 91 64 91S66.922 90.973 68.364 90.934ZM48.035 86.13q-2.78-0.306-5.453-0.712-0.406-2.675-0.713-5.459c0.992 1.048 2 2.093 3.039 3.133Q46.465 84.648 48.035 86.13Zm-4.753 3.468q4.685 0.655 9.691 1.012 3.786 3.288 7.573 6.143a98.939 98.939 0 0 1-13.332 7.773A98.957 98.957 0 0 1 43.282 89.598ZM64 124c-5.827 0-11.23-6.004-15.334-15.718a100.87 100.87 0 0 0 15.334-9.011 100.857 100.857 0 0 0 15.335 9.01C75.231 117.996 69.827 124 64 124Zm16.786-19.473A98.95 98.95 0 0 1 67.454 96.753q3.778-2.851 7.574-6.143 4.998-0.352 9.69-1.012A98.956 98.956 0 0 1 80.786 104.527Zm25.641 1.9c-4.121 4.122-12.19 3.696-21.963-0.273a100.752 100.752 0 0 0 4.479-17.211 100.747 100.747 0 0 0 17.21-4.479C110.122 94.237 110.547 102.306 106.427 106.427ZM90.934 59.636Q92.685 61.82 94.29 64q-1.604 2.179-3.356 4.364C90.973 66.922 91 65.47 91 64S90.973 61.078 90.934 59.636ZM90.61 52.978q-0.352-5.001-1.012-9.696a98.959 98.959 0 0 1 14.928 3.932 98.957 98.957 0 0 1-7.776 13.336Q93.9 56.772 90.61 52.978Zm0 22.044q3.287-3.785 6.14-7.572a98.957 98.957 0 0 1 7.776 13.336A98.959 98.959 0 0 1 89.598 84.718Q90.254 80.031 90.61 75.022ZM124 64c0 5.828-6.006 11.232-15.723 15.336A100.743 100.743 0 0 0 99.274 64 100.743 100.743 0 0 0 108.277 48.664C117.994 52.768 124 58.172 124 64ZM98.044 18.67c3.534 0 6.41 0.932 8.383 2.903 4.121 4.121 3.695 12.19-0.273 21.963a100.747 100.747 0 0 0-17.211-4.479 100.75 100.75 0 0 0-4.479-17.211A37.466 37.466 0 0 1 98.044 18.67ZM84.718 38.402q-4.687-0.656-9.696-1.012-3.784-3.286-7.569-6.138a99.022 99.022 0 0 1 13.333-7.779A98.949 98.949 0 0 1 84.718 38.402ZM64 4c5.828 0 11.232 6.006 15.336 15.722a100.746 100.746 0 0 0-15.337 9.004A100.755 100.755 0 0 0 48.664 19.723C52.768 10.006 58.172 4 64 4ZM47.214 23.474a99.029 99.029 0 0 1 13.333 7.778q-3.777 2.85-7.569 6.138-5.001 0.352-9.696 1.012A98.954 98.954 0 0 1 47.214 23.474ZM21.573 21.573c1.973-1.973 4.848-2.903 8.383-2.903a37.465 37.465 0 0 1 13.58 3.176 100.749 100.749 0 0 0-4.479 17.211A100.747 100.747 0 0 0 21.846 43.536C17.878 33.763 17.453 25.694 21.573 21.573ZM19.723 48.664A100.743 100.743 0 0 0 28.726 64 100.743 100.743 0 0 0 19.723 79.336C10.006 75.232 4 69.828 4 64S10.006 52.768 19.723 48.664Z" fill="#d2d6dc" data-fill-palette-color="accent"></path><path d="M64 81A17 17 0 1 0 47 64 17.019 17.019 0 0 0 64 81Zm0-30A13 13 0 1 1 51 64 13.015 13.015 0 0 1 64 51Z" fill="#d2d6dc" data-fill-palette-color="accent"></path><path d="M64 72a8 8 0 1 0-8-8A8.009 8.009 0 0 0 64 72Zm0-12a4 4 0 1 1-4 4A4.004 4.004 0 0 1 64 60Z" fill="#d2d6dc" data-fill-palette-color="accent"></path></svg></g></svg></g></svg></g><defs></defs></svg><rect width="395.52" height="95.08848980267322" fill="none" stroke="none" visibility="hidden"></rect></g></svg></g></svg>