<svg xmlns="http://www.w3.org/2000/svg" version="1.1" xmlns:xlink="http://www.w3.org/1999/xlink" xmlns:svgjs="http://svgjs.dev/svgjs" width="1500" height="1500" viewBox="0 0 1500 1500"><rect width="1500" height="1500" fill="#ffffff"></rect><g transform="matrix(0.6666666666666666,0,0,0.6666666666666666,250,250.0000000000001)"><svg viewBox="0 0 280 280" data-background-color="#ffffff" preserveAspectRatio="xMidYMid meet" height="1500" width="1500" xmlns="http://www.w3.org/2000/svg" xmlns:xlink="http://www.w3.org/1999/xlink"><g id="tight-bounds" transform="matrix(1,0,0,1,0,-2.842170943040401e-14)"><svg viewBox="0 0 280 280" height="280" width="280"><g><svg viewBox="0 0 280 280" height="280" width="280"><g><svg viewBox="0 0 280 280" height="280" width="280"><g id="textblocktransform"><svg viewBox="0 0 280 280" height="280" width="280" id="textblock"><g><svg viewBox="0 0 280 280" height="280" width="280"><g transform="matrix(1,0,0,1,90.50252531694167,90.50252531694167)"><svg viewBox="0 0 98.99494936611666 98.99494936611666" height="98.99494936611666" width="98.99494936611666"><g><circle r="49" cx="49.49747468305833" cy="49.49747468305833" fill="#fec200" data-fill-palette-color="accent"></circle></g></svg></g><g><path d="M125.846 29.264l8.827-0.098-0.035-3.141-2.266 0.025c0.723-1.758 1.265-3.076 1.626-3.955 0.361-0.879 0.903-2.197 1.626-3.955v0l8.748-0.097c0.571 1.319 1.136 2.625 1.693 3.918 0.558 1.293 1.122 2.599 1.694 3.918v0l-2.226 0.025 0.034 3.141 8.827-0.098-0.034-3.141-3.261 0.036c-1.878-4.353-3.761-8.66-5.651-12.921-1.89-4.261-3.773-8.568-5.651-12.921v0c-1.78 4.394-3.568 8.742-5.363 13.043-1.795 4.301-3.582 8.649-5.363 13.043v0l-3.26 0.037zM139.455 8.633v0c0.026-0.08 0.071-0.213 0.135-0.399 0.064-0.186 0.147-0.492 0.249-0.917v0l0.412 1.307 2.734 6.293-6.044 0.067c0.361-0.932 0.754-1.964 1.179-3.095 0.425-1.131 0.87-2.217 1.335-3.256z" fill="#6230a3" data-fill-palette-color="primary"></path><path d="M125.022 279.654l9.235 0.107 0.038-3.28-2.366-0.027c0.797-1.827 1.392-3.195 1.787-4.106 0.402-0.91 1.001-2.275 1.797-4.095v0l9.145 0.106c0.567 1.392 1.128 2.77 1.682 4.136 0.548 1.365 1.105 2.747 1.672 4.145v0l-2.326-0.027-0.038 3.28 9.235 0.107 0.038-3.28-3.41-0.04c-1.862-4.601-3.732-9.15-5.608-13.645-1.87-4.502-3.736-9.05-5.598-13.645v0c-1.968 4.55-3.939 9.054-5.913 13.512-1.98 4.451-3.954 8.955-5.922 13.511v0l-3.41-0.039zM139.743 258.41v0c0.028-0.086 0.079-0.224 0.154-0.415 0.068-0.191 0.162-0.508 0.279-0.952v0l0.402 1.377 2.707 6.643-6.322-0.074c0.402-0.963 0.839-2.032 1.309-3.206 0.471-1.174 0.961-2.299 1.471-3.373z" fill="#6230a3" data-fill-palette-color="primary"></path><path d="M3.622 146.878c0-6.141 4.978-11.119 11.119-11.119 6.141 0 11.119 4.978 11.119 11.119 0 6.141-4.978 11.119-11.119 11.119-6.141 0-11.119-4.978-11.119-11.119z" fill="#6230a3" data-fill-palette-color="primary"></path><path d="M254.14 146.878c0-6.141 4.978-11.119 11.119-11.119 6.141 0 11.119 4.978 11.119 11.119 0 6.141-4.978 11.119-11.119 11.119-6.141 0-11.119-4.978-11.119-11.119z" fill="#6230a3" data-fill-palette-color="primary"></path></g></svg></g></svg></g></svg></g></svg></g><defs></defs></svg><rect width="280" height="280" fill="none" stroke="none" visibility="hidden"></rect></g></svg></g></svg>